<svg width="16" height="10" viewBox="0 0 16 10" fill="none" xmlns="http://www.w3.org/2000/svg">
<path d="M0.382229 1.01486C0.298242 1.09742 0.2507 1.20959 0.250017 1.32682C0.249468 1.38499 0.26091 1.44267 0.283644 1.49631C0.306378 1.54995 0.339925 1.59843 0.382229 1.63877L7.80497 8.99458C7.84611 9.03589 7.89512 9.06869 7.94916 9.09108C8.0032 9.11347 8.06119 9.125 8.11976 9.125C8.17833 9.125 8.23632 9.11347 8.29035 9.09108C8.34439 9.06869 8.39341 9.03589 8.43455 8.99458L15.8589 1.63877C15.9025 1.59832 15.9375 1.54959 15.9617 1.49548C15.9859 1.44136 15.9989 1.38297 15.9999 1.32377C16.0009 1.26457 15.9899 1.20578 15.9675 1.1509C15.9451 1.09601 15.9118 1.04615 15.8695 1.00429C15.8273 0.962421 15.777 0.929407 15.7216 0.907207C15.6662 0.885006 15.6069 0.874074 15.5471 0.875061C15.4874 0.876048 15.4285 0.888934 15.3739 0.912952C15.3193 0.936969 15.2701 0.971628 15.2293 1.01486L8.11976 8.05873L1.01181 1.01486C0.970558 0.973741 0.921512 0.941106 0.867488 0.918836C0.813464 0.896567 0.755529 0.885102 0.697018 0.885102C0.638507 0.885102 0.580574 0.896567 0.52655 0.918836C0.472527 0.941106 0.423478 0.973741 0.382229 1.01486Z" fill="black"/>
</svg>
