<svg width="33" height="32" viewBox="0 0 33 32" fill="none" xmlns="http://www.w3.org/2000/svg">
<g clip-path="url(#clip0_108_1569)">
<path d="M22.9048 11.0343C23.7001 11.0343 24.3448 10.3896 24.3448 9.5943C24.3448 8.79901 23.7001 8.1543 22.9048 8.1543C22.1096 8.1543 21.4648 8.79901 21.4648 9.5943C21.4648 10.3896 22.1096 11.0343 22.9048 11.0343Z" fill="black"/>
<path d="M16.4981 9.83789C15.2794 9.83789 14.088 10.1993 13.0746 10.8764C12.0612 11.5535 11.2714 12.5159 10.805 13.6419C10.3386 14.7679 10.2166 16.0069 10.4543 17.2023C10.6921 18.3976 11.279 19.4956 12.1408 20.3574C13.0026 21.2192 14.1006 21.8061 15.296 22.0439C16.4913 22.2817 17.7303 22.1596 18.8563 21.6932C19.9823 21.2268 20.9447 20.437 21.6218 19.4236C22.2989 18.4103 22.6603 17.2189 22.6603 16.0001C22.6603 14.3658 22.0111 12.7984 20.8555 11.6428C19.6998 10.4871 18.1325 9.83789 16.4981 9.83789ZM16.4981 20.0001C15.707 20.0001 14.9337 19.7655 14.2759 19.326C13.6181 18.8864 13.1054 18.2617 12.8026 17.5308C12.4999 16.7999 12.4207 15.9957 12.575 15.2197C12.7293 14.4438 13.1103 13.7311 13.6697 13.1717C14.2291 12.6123 14.9419 12.2313 15.7178 12.0769C16.4937 11.9226 17.298 12.0018 18.0289 12.3046C18.7598 12.6073 19.3845 13.12 19.824 13.7778C20.2635 14.4356 20.4981 15.209 20.4981 16.0001C20.4981 17.061 20.0767 18.0784 19.3266 18.8285C18.5764 19.5787 17.559 20.0001 16.4981 20.0001Z" fill="black"/>
<path d="M16.5 6.1622C19.7041 6.1622 20.0837 6.1744 21.349 6.2322C22.11 6.24126 22.8637 6.38103 23.5773 6.6454C24.0948 6.84509 24.5648 7.15087 24.957 7.5431C25.3492 7.93532 25.655 8.4053 25.8547 8.9228C26.1191 9.63641 26.2588 10.3901 26.2679 11.1511C26.3256 12.4164 26.3379 12.796 26.3379 16.0001C26.3379 19.2042 26.3257 19.5838 26.2679 20.8491C26.2588 21.6101 26.1191 22.3638 25.8547 23.0774C25.655 23.5949 25.3492 24.0649 24.957 24.4571C24.5648 24.8493 24.0948 25.1551 23.5773 25.3548C22.8637 25.6192 22.11 25.7589 21.349 25.768C20.0838 25.8257 19.7044 25.838 16.5 25.838C13.2956 25.838 12.9162 25.8258 11.651 25.768C10.89 25.7589 10.1363 25.6192 9.4227 25.3548C8.9052 25.1551 8.43522 24.8493 8.043 24.4571C7.65077 24.0649 7.34499 23.5949 7.1453 23.0774C6.88093 22.3638 6.74116 21.6101 6.7321 20.8491C6.6744 19.5838 6.6621 19.2042 6.6621 16.0001C6.6621 12.796 6.6743 12.4164 6.7321 11.1511C6.74116 10.3901 6.88093 9.63641 7.1453 8.9228C7.34497 8.40528 7.65076 7.93529 8.04298 7.54304C8.43521 7.1508 8.90519 6.845 9.4227 6.6453C10.1363 6.38093 10.89 6.24116 11.651 6.2321C12.9163 6.1744 13.2959 6.1622 16.5 6.1622ZM16.5 4C13.241 4 12.8323 4.0138 11.5524 4.0722C10.5571 4.09218 9.57229 4.28079 8.64 4.63C7.84273 4.93831 7.11868 5.4098 6.51424 6.01424C5.9098 6.61868 5.43831 7.34273 5.13 8.14C4.78073 9.07245 4.59213 10.0574 4.5722 11.0529C4.5138 12.3323 4.5 12.741 4.5 16C4.5 19.259 4.5138 19.6677 4.5722 20.9476C4.59214 21.9431 4.78075 22.928 5.13 23.8605C5.43831 24.6578 5.9098 25.3818 6.51424 25.9863C7.11868 26.5907 7.84273 27.0622 8.64 27.3705C9.57245 27.7198 10.5574 27.9084 11.5529 27.9283C12.8323 27.9862 13.241 28 16.5 28C19.759 28 20.1677 27.9862 21.4476 27.9278C22.4431 27.9079 23.428 27.7193 24.3605 27.37C25.1578 27.0617 25.8818 26.5902 26.4863 25.9858C27.0907 25.3813 27.5622 24.6573 27.8705 23.86C28.2198 22.9275 28.4084 21.9426 28.4283 20.9471C28.4862 19.6677 28.5 19.259 28.5 16C28.5 12.741 28.4862 12.3323 28.4278 11.0524C28.4078 10.0571 28.2192 9.07229 27.87 8.14C27.5616 7.34283 27.0901 6.61887 26.4857 6.01452C25.8812 5.41017 25.1572 4.93876 24.36 4.6305C23.4275 4.28124 22.4426 4.09264 21.4471 4.0727C20.1677 4.0138 19.759 4 16.5 4Z" fill="black"/>
</g>
<defs>
<clipPath id="clip0_108_1569">
<rect width="32" height="32" fill="white" transform="translate(0.5)"/>
</clipPath>
</defs>
</svg>
