<svg width="33" height="32" viewBox="0 0 33 32" fill="none" xmlns="http://www.w3.org/2000/svg">
<g clip-path="url(#clip0_108_1574)">
<path d="M27.17 4H5.83C5.47807 4.00262 5.1413 4.14358 4.89244 4.39244C4.64358 4.6413 4.50262 4.97807 4.5 5.33V26.67C4.50262 27.0219 4.64358 27.3587 4.89244 27.6076C5.1413 27.8564 5.47807 27.9974 5.83 28H17.32V18.72H14.2V15.09H17.32V12.42C17.32 9.32 19.21 7.63 21.99 7.63C22.92 7.63 23.85 7.63 24.78 7.77V11H22.87C21.36 11 21.07 11.72 21.07 12.77V15.08H24.67L24.2 18.71H21.07V28H27.17C27.5219 27.9974 27.8587 27.8564 28.1076 27.6076C28.3564 27.3587 28.4974 27.0219 28.5 26.67V5.33C28.4974 4.97807 28.3564 4.6413 28.1076 4.39244C27.8587 4.14358 27.5219 4.00262 27.17 4Z" fill="black"/>
</g>
<defs>
<clipPath id="clip0_108_1574">
<rect width="32" height="32" fill="white" transform="translate(0.5)"/>
</clipPath>
</defs>
</svg>
